<?xml version="1.0" encoding="UTF-8"?>
<svg width="239px" height="50px" viewBox="0 0 239 50" version="1.1" xmlns="http://www.w3.org/2000/svg" xmlns:xlink="http://www.w3.org/1999/xlink">
    <!-- Generator: Sketch 64 (93537) - https://sketch.com -->
    <title>NameScan_logo_1</title>
    <desc>Created with Sketch.</desc>
    <g id="Landing-pages" stroke="none" stroke-width="1" fill="none" fill-rule="evenodd">
        <g id="NameScan_logo_1" transform="translate(0.000000, -25.000000)" fill-rule="nonzero">
            <g id="coloured-logo" transform="translate(0.000000, 25.000000)">
                <path d="M30.9726594,29.5918367 L1.02040816,41.0490512 L1.02040816,50 L28.4616922,39.6168994 C32.7662073,37.6476907 34.0216909,32.9931973 30.9726594,29.5918367 L30.9726594,29.5918367 Z" id="XMLID_93_" fill="#5E5E5E"></path>
                <polygon id="XMLID_90_" fill="#4CAEB0" points="11.2244898 21.4949394 1.02040816 3.06122449 1.02040816 25.5102041"></polygon>
                <path d="M11.9395962,20.4081633 L41.6566315,8.87311446 L41.8367347,0 L14.4610416,10.6477374 C9.95846055,12.4223602 8.87784109,17.2138421 11.9395962,20.4081633 L11.9395962,20.4081633 Z" id="XMLID_85_" fill="#5E5E5E"></path>
                <polygon id="XMLID_84_" fill="#4CAEB0" points="32.6530612 29.406308 42.8571429 46.9387755 42.8571429 25.5102041"></polygon>
                <polygon id="XMLID_83_" fill="#4CAEB0" points="0 28.9823312 0 38.7755102 41.8367347 22.5722504 41.8367347 12.244898"></polygon>
                <g id="XMLID_57_" transform="translate(56.122449, 9.183673)" fill="#4CAEB0">
                    <path d="M17.5925926,21.047619 L7.71919879,3.36054422 C7.18065004,2.29931973 6.64210128,1.59183673 6.46258503,1.41496599 C5.92403628,0.884353741 5.20597128,0.707482993 4.12887377,0.707482993 C1.79516251,0.707482993 0.718065004,1.94557823 0.718065004,4.42176871 L0.718065004,25.8231293 L4.84693878,25.8231293 L4.84693878,5.4829932 L14.7203326,23.170068 C15.2588813,24.2312925 15.7974301,24.9387755 15.9769463,25.1156463 C16.5154951,25.6462585 17.2335601,26 18.3106576,26 C19.3877551,26 20.2853364,25.6462585 20.8238851,24.9387755 C21.3624339,24.4081633 21.7214664,23.5238095 21.7214664,22.6394558 L21.7214664,0.884353741 L17.5925926,0.884353741 L17.5925926,21.047619 Z" id="XMLID_82_"></path>
                    <path d="M37.6984127,6.72108844 L25.6708239,6.72108844 L25.6708239,9.9047619 L37.3393802,9.9047619 C38.595994,9.9047619 39.314059,10.0816327 39.6730915,10.6122449 C40.032124,11.1428571 40.2116402,11.8503401 40.2116402,12.9115646 L31.2358277,12.9115646 C29.4406652,12.9115646 28.1840514,13.2653061 27.1069539,14.1496599 C26.0298564,15.0340136 25.6708239,16.0952381 25.6708239,17.6870748 L25.6708239,21.047619 C25.6708239,22.462585 26.2093726,23.7006803 27.2864701,24.4081633 C28.3635676,25.1156463 29.6201814,25.4693878 31.4153439,25.4693878 L38.595994,25.4693878 C40.2116402,25.4693878 41.468254,25.1156463 42.5453515,24.2312925 C43.4429327,23.3469388 43.9814815,22.2857143 43.9814815,20.8707483 L43.9814815,11.4965986 C43.8019652,8.31292517 41.6477702,6.72108844 37.6984127,6.72108844 Z M40.032124,20.3401361 C40.032124,21.755102 39.1345427,22.462585 37.3393802,22.462585 L31.9538927,22.462585 C31.2358277,22.462585 30.5177627,22.2857143 29.9792139,21.9319728 C29.4406652,21.5782313 29.2611489,21.047619 29.2611489,20.3401361 L29.2611489,18.5714286 C29.2611489,16.9795918 30.1587302,16.2721088 31.9538927,16.2721088 L39.1345427,16.2721088 C39.6730915,16.2721088 40.032124,16.4489796 40.032124,16.9795918 L40.032124,20.3401361 Z" id="XMLID_68_"></path>
                    <path d="M68.9342404,6.89795918 L65.5234316,6.89795918 C63.5487528,6.89795918 62.1126228,7.78231293 61.0355253,9.37414966 C60.4969766,8.48979592 59.7789116,7.78231293 59.2403628,7.42857143 C58.5222978,7.07482993 57.8042328,6.89795918 56.547619,6.89795918 L53.1368103,6.89795918 C49.5464853,6.89795918 47.5718065,9.02040816 47.5718065,13.0884354 L47.5718065,25.4693878 L51.3416478,25.4693878 L51.3416478,13.9727891 C51.3416478,11.8503401 52.239229,10.7891156 54.2139078,10.7891156 C56.0090703,10.7891156 57.2656841,10.7891156 57.6247166,10.9659864 C58.5222978,11.3197279 59.0608466,12.3809524 59.0608466,13.9727891 L59.0608466,25.292517 L62.8306878,25.292517 L62.8306878,14.1496599 C62.8306878,13.0884354 63.0102041,12.2040816 63.3692366,11.8503401 C63.9077853,11.1428571 64.6258503,10.7891156 65.3439153,10.7891156 C67.3185941,10.7891156 68.3956916,10.7891156 68.9342404,10.9659864 C70.0113379,11.3197279 70.5498866,12.3809524 70.5498866,13.9727891 L70.5498866,25.4693878 L74.3197279,25.4693878 L74.3197279,13.0884354 C74.3197279,11.1428571 73.7811791,9.72789116 72.8835979,8.66666667 C71.9860166,7.42857143 70.5498866,6.89795918 68.9342404,6.89795918 Z" id="XMLID_64_"></path>
                    <path d="M96.4002268,14.1496599 L96.4002268,11.8503401 C96.4002268,8.48979592 94.6050642,6.72108844 90.835223,6.72108844 L84.1931217,6.72108844 C80.2437642,6.72108844 78.0895692,8.31292517 78.0895692,11.4965986 L78.0895692,20.3401361 C78.0895692,22.1088435 78.6281179,23.5238095 79.8847317,24.4081633 C80.7823129,25.1156463 82.3979592,25.4693878 84.3726379,25.4693878 L96.2207105,25.4693878 L96.2207105,22.2857143 L85.0907029,22.2857143 C84.0136054,22.2857143 83.2955404,22.1088435 82.7569917,21.9319728 C82.0389267,21.4013605 81.8594104,20.6938776 81.8594104,19.8095238 L81.8594104,19.1020408 L96.4002268,14.1496599 Z M81.8594104,16.0952381 L81.8594104,12.3809524 C81.8594104,10.7891156 82.9365079,9.9047619 85.2702192,9.9047619 L89.399093,9.9047619 C91.3737717,9.9047619 92.4508692,10.6122449 92.4508692,12.0272109 L92.4508692,12.3809524 L81.8594104,16.0952381 Z" id="XMLID_58_"></path>
                </g>
                <path d="M175.510204,12.9830656 L164.83965,12.9830656 C163.090379,12.9830656 162.040816,13.3449124 161.516035,14.2495296 C161.341108,14.7922999 161.166181,15.8778405 161.166181,17.5061514 C161.166181,18.4107686 161.516035,19.1344623 162.215743,19.4963092 C162.740525,19.858156 163.61516,20.0390795 164.83965,20.0390795 L169.212828,20.0390795 C171.137026,20.0390795 172.536443,20.5818498 173.760933,21.4864669 C174.810496,22.3910841 175.510204,23.6575481 175.510204,25.285859 L175.510204,29.2661746 C175.510204,31.0754089 174.985423,32.3418729 173.760933,33.2464901 C172.536443,34.1511073 170.962099,34.6938776 169.037901,34.6938776 L157.142857,34.6938776 L157.142857,30.8944855 L167.813411,30.8944855 C169.562682,30.8944855 170.612245,30.5326386 171.137026,29.6280214 C171.311953,29.2661746 171.48688,27.9997105 171.48688,26.1904762 C171.48688,24.3812419 170.262391,23.6575481 167.988338,23.6575481 L163.61516,23.6575481 C161.865889,23.6575481 160.291545,23.2957013 159.067055,22.3910841 C157.842566,21.4864669 157.142857,20.2200029 157.142857,18.591692 L157.142857,14.6113765 C157.142857,12.8021421 157.842566,11.3547547 159.241983,10.2692141 C160.291545,9.54552034 161.690962,9.18367347 163.440233,9.18367347 L175.510204,9.18367347 L175.510204,12.9830656 Z" id="XMLID_54_" fill="#5E5E5E"></path>
                <path d="M193.877551,34.6938776 L185.515182,34.6938776 C181.508213,34.6938776 179.591837,33.0477474 179.591837,29.5725838 L179.591837,20.2445129 C179.591837,16.9522526 181.333997,15.3061224 184.644102,15.3061224 L193.877551,15.3061224 L193.877551,18.5983827 L186.212046,18.5983827 C185.16675,18.5983827 184.469886,18.7812861 183.947237,19.1470928 C183.598805,19.5128995 183.250373,20.2445129 183.250373,21.1590296 L183.250373,28.8409704 C183.250373,30.4871005 184.295669,31.4016173 186.386262,31.4016173 L193.877551,31.4016173 L193.877551,34.6938776 Z" id="XMLID_49_" fill="#5E5E5E"></path>
                <path d="M216.326531,29.9383905 C216.326531,31.4016173 215.786315,32.4990374 214.885954,33.4135541 C213.985594,34.3280709 212.545018,34.6938776 210.92437,34.6938776 L203.721489,34.6938776 C201.920768,34.6938776 200.660264,34.3280709 199.579832,33.5964575 C198.4994,32.6819407 197.959184,31.5845206 197.959184,30.1212938 L197.959184,26.6461302 C197.959184,25 198.4994,23.9025799 199.39976,22.9880631 C200.480192,22.0735464 201.740696,21.7077397 203.541417,21.7077397 L212.545018,21.7077397 C212.545018,20.6103196 212.364946,19.8787062 212.004802,19.3299961 C211.644658,18.7812861 210.744298,18.5983827 209.663866,18.5983827 L197.959184,18.5983827 L197.959184,15.3061224 L210.02401,15.3061224 C214.165666,15.3061224 216.146459,16.9522526 216.146459,20.2445129 L216.146459,29.9383905 L216.326531,29.9383905 Z M212.545018,29.3896804 L212.545018,25.5487101 C212.545018,25.1829034 212.184874,24.8170966 211.644658,24.8170966 L204.441777,24.8170966 C202.641056,24.8170966 201.740696,25.5487101 201.740696,27.1948402 L201.740696,29.0238737 C201.740696,29.7554871 201.920768,30.3041972 202.460984,30.6700039 C203.0012,31.0358106 203.721489,31.2187139 204.441777,31.2187139 L209.843938,31.2187139 C211.644658,31.4016173 212.545018,30.6700039 212.545018,29.3896804 Z" id="XMLID_46_" fill="#5E5E5E"></path>
                <path d="M234.956557,34.6938776 L234.956557,22.5538814 C234.956557,20.5607477 233.865427,19.6547778 231.683168,19.6547778 L227.500505,19.6547778 C225.318246,19.6547778 224.227117,20.5607477 224.227117,22.5538814 L224.227117,34.6938776 L220.408163,34.6938776 L220.408163,21.2855236 C220.408163,17.2992562 222.408567,15.3061224 226.227521,15.3061224 L232.956153,15.3061224 C236.775106,15.3061224 238.77551,17.2992562 238.77551,21.2855236 L238.77551,34.6938776 L234.956557,34.6938776 Z" id="XMLID_42_" fill="#5E5E5E"></path>
            </g>
            <rect id="Rectangle" x="0" y="0" width="239" height="100"></rect>
        </g>
    </g>
</svg>